<?xml version="1.0" encoding="UTF-8"?><svg xmlns="http://www.w3.org/2000/svg" xmlns:xlink="http://www.w3.org/1999/xlink" viewBox="0 0 229.76 62"><defs><radialGradient id="radial-gradient" cx="444.59" cy="-467.06" fx="444.59" fy="-467.06" r="6.49" gradientTransform="translate(-1879.68 266.18) scale(4.39 .49)" gradientUnits="userSpaceOnUse"><stop offset="0" stop-color="#221f1c"/><stop offset=".14" stop-color="#787574"/><stop offset=".33" stop-color="rgba(166,164,163,.66)" stop-opacity=".66"/><stop offset=".52" stop-color="rgba(204,203,203,.37)" stop-opacity=".37"/><stop offset=".7" stop-color="rgba(232,231,231,.17)" stop-opacity=".17"/><stop offset=".86" stop-color="rgba(249,249,249,.04)" stop-opacity=".04"/><stop offset="1" stop-color="#fff" stop-opacity="0"/></radialGradient><linearGradient id="linear-gradient" x1="52.89" y1="16.95" x2="84.93" y2="16.95" gradientUnits="userSpaceOnUse"><stop offset="0" stop-color="#76bc21"/><stop offset=".05" stop-color="#61ac35"/><stop offset=".16" stop-color="#3e9158"/><stop offset=".26" stop-color="#227d74"/><stop offset=".37" stop-color="#0f6e87"/><stop offset=".48" stop-color="#036593"/><stop offset=".59" stop-color="#006397"/><stop offset="1" stop-color="#006397"/></linearGradient><linearGradient id="linear-gradient-2" x1="41.45" y1="16.23" x2="70.11" y2="16.23" gradientUnits="userSpaceOnUse"><stop offset=".17" stop-color="#006397" stop-opacity="0"/><stop offset=".18" stop-color="rgba(0,99,151,.04)" stop-opacity=".04"/><stop offset=".25" stop-color="rgba(0,99,151,.31)" stop-opacity=".31"/><stop offset=".33" stop-color="rgba(0,99,151,.52)" stop-opacity=".52"/><stop offset=".4" stop-color="rgba(0,99,151,.68)" stop-opacity=".68"/><stop offset=".46" stop-color="rgba(0,99,151,.77)" stop-opacity=".77"/><stop offset=".52" stop-color="#006397" stop-opacity=".8"/><stop offset=".63" stop-color="rgba(0,99,151,.88)" stop-opacity=".88"/><stop offset=".83" stop-color="rgba(0,99,151,.97)" stop-opacity=".97"/><stop offset="1" stop-color="#006397"/></linearGradient><linearGradient id="linear-gradient-3" x1="55.56" y1="17.46" x2="84.63" y2="17.46" gradientUnits="userSpaceOnUse"><stop offset="0" stop-color="#006397"/><stop offset="1" stop-color="#76bc21"/></linearGradient><linearGradient id="linear-gradient-4" x1="61.48" y1="11.99" x2="87.17" y2="11.99" gradientUnits="userSpaceOnUse"><stop offset="0" stop-color="#006397"/><stop offset="1" stop-color="#76bc21"/></linearGradient><linearGradient id="linear-gradient-5" x1="44.75" y1="27.98" x2="85.87" y2="27.98" gradientUnits="userSpaceOnUse"><stop offset="0" stop-color="#006397" stop-opacity="0"/><stop offset=".13" stop-color="rgba(0,99,151,.07)" stop-opacity=".07"/><stop offset=".36" stop-color="rgba(0,99,151,.27)" stop-opacity=".27"/><stop offset=".67" stop-color="rgba(0,99,151,.6)" stop-opacity=".6"/><stop offset="1" stop-color="#006397"/></linearGradient><linearGradient id="linear-gradient-6" x1="59.35" y1="21.42" x2="93.73" y2="21.42" gradientUnits="userSpaceOnUse"><stop offset="0" stop-color="#76bc21"/><stop offset="1" stop-color="#dedede" stop-opacity=".1"/></linearGradient><linearGradient id="linear-gradient-7" x1="209.23" y1="306.88" x2="233.45" y2="307.41" gradientTransform="translate(-244.14 -397.51) rotate(9.84) scale(1.12 1.14) skewX(19.28)" gradientUnits="userSpaceOnUse"><stop offset=".39" stop-color="#006397"/><stop offset=".84" stop-color="#bfc0c3"/><stop offset="1" stop-color="#bfc0c3"/></linearGradient><linearGradient id="linear-gradient-8" x1="66.42" y1="29.13" x2="67.01" y2="22.37" gradientUnits="userSpaceOnUse"><stop offset="0" stop-color="#20956c"/><stop offset="0" stop-color="#21956a"/><stop offset=".18" stop-color="#40a350"/><stop offset=".35" stop-color="#57ae3b"/><stop offset=".54" stop-color="#68b52c"/><stop offset=".74" stop-color="#72ba23"/><stop offset="1" stop-color="#76bc21"/></linearGradient><linearGradient id="linear-gradient-9" x1="73.08" y1="29.71" x2="73.66" y2="22.94" xlink:href="#linear-gradient-8"/><linearGradient id="linear-gradient-10" x1="52.89" y1="21.14" x2="84.93" y2="21.14" xlink:href="#linear-gradient"/><linearGradient id="linear-gradient-11" x1="52.89" y1="18.82" x2="84.93" y2="18.82" xlink:href="#linear-gradient"/><linearGradient id="linear-gradient-12" x1="52.89" y1="22.85" x2="84.93" y2="22.85" xlink:href="#linear-gradient"/><linearGradient id="linear-gradient-13" x1="52.89" y1="20.3" x2="84.93" y2="20.3" xlink:href="#linear-gradient"/><linearGradient id="linear-gradient-14" x1="52.89" y1="22.49" x2="84.93" y2="22.49" xlink:href="#linear-gradient"/></defs><g style="isolation:isolate;"><g id="Layer_2"><g id="Layer_1-2"><rect x="153.21" y="18.94" width="7.03" height="25.37" style="fill:#035b98; stroke-width:0px;"/><polygon points="163.92 44.31 163.92 18.94 183.24 18.94 183.24 23.86 170.95 23.86 170.95 29.09 182.26 29.09 182.26 34.01 170.95 34.01 170.95 39.39 183.24 39.39 183.24 44.31 163.92 44.31" style="fill:#035b98; stroke-width:0px;"/><polygon points="187.18 44.31 187.18 18.94 206.5 18.94 206.5 23.86 194.21 23.86 194.21 29.09 205.52 29.09 205.52 34.01 194.21 34.01 194.21 39.39 206.5 39.39 206.5 44.31 187.18 44.31" style="fill:#035b98; stroke-width:0px;"/><polygon points="210.44 44.31 210.44 18.94 229.76 18.94 229.76 23.86 217.47 23.86 217.47 29.09 228.78 29.09 228.78 34.01 217.47 34.01 217.47 39.39 229.76 39.39 229.76 44.31 210.44 44.31" style="fill:#035b98; stroke-width:0px;"/><path d="M130.93,34.17c-.09,1.79-.12,3.45-.25,5.25.71.06,1.51.13,2.27.02l-.23-5.01-.04-.24c-.58.02-1.12.05-1.75-.02M126.5,29.14c-.87.44-2.16,1.1-2.02,2.3.19.65.9,1.08,1.46,1.35,3.1,1.36,7.21,1.41,10.48.39.81-.31,1.89-.76,2.04-1.75,0-.82-.87-1.33-1.5-1.64v-.04c.22-.08.47-.16.69-.19v-.02c-1.09-.2-2.15-.48-3.21-.76.2.47.35.96.52,1.44.32-.1.64-.18.99-.23.56.22,1.36.53,1.44,1.23.06.65-.65.97-1.11,1.24-2.4.87-5.1.96-7.6.29-.69-.22-1.69-.5-1.77-1.38.49-1.16,1.76-1.4,2.82-1.68-.54-.35-1.1-.66-1.63-1.05-.57.03-1.09.28-1.6.51M131.8,22.15l-.31,1-1.56,4.46c.39.04.87,0,1.26.04v.04l-.23,5.04.04.05c.5.05,1.12.07,1.63-.01v-.08l-.2-4.89.03-.17,1.37-.02c-.68-1.8-1.35-3.63-1.98-5.46h-.04ZM131.08,19.91c1.15-.78,2.17.31,3.06.93,3.43,2.76,6.67,5.92,9.14,9.49.31.46.45,1.18.17,1.7-.64,1.07-1.5,2.04-2.32,3.03v.05c-2.04,2.17-4.2,4.4-6.52,6.24-1.14.69-2.18,2.2-3.64,1.27-3.33-2.43-6.52-5.46-9.22-8.71-.46-.71-1.17-1.3-1.49-2.11-.44-1.1.54-1.88,1.1-2.71,2.76-3.4,6.18-6.73,9.74-9.19M133.95,16.67l-1.27-1.8c-.16-.1-.35-.25-.52-.3-.37-.16-.78.04-1.08.27l-2.3,2.99c-3.68,4.56-8.04,8.82-12.8,12.08-.38.29-.93.58-1.05,1.06-.12.44.1.8.37,1.07,3.81,2.62,7.45,5.74,10.69,9.29.58.61,1.04,1.2,1.6,1.77.95,1.26,2.06,2.53,2.93,3.89.27.29.32.75.75.89.33.12.75.19,1.07,0l.32-.32c3.94-5.58,8.94-10.59,14.52-14.64.56-.5,1.63-.68,1.64-1.61-.04-.43-.29-.85-.66-1.08h-.09c-2.87-1.97-5.55-4.18-8.07-6.69l-2.79-2.91c-1.13-1.25-2.23-2.64-3.27-3.96M130.67,19.23c1.12-.87,2.53-.15,3.47.65.99.75,2.02,1.61,2.92,2.48l.16.09c2.5,2.32,4.82,4.9,6.73,7.62.31.47.58,1.01.41,1.64-.63,1.59-1.93,2.86-3.06,4.24-2.44,2.63-5.02,5.18-7.91,7.21-.58.41-1.37.79-2.07.47-2.12-1.11-3.92-2.93-5.78-4.59-2.16-2-4.32-4.33-5.95-6.76-.24-.34-.31-.76-.3-1.21.21-.84.79-1.53,1.33-2.24,1.93-2.46,4.3-4.8,6.69-6.93.06-.06.16-.17.24-.23,1.03-.89,2.05-1.67,3.12-2.44" style="fill:#035b98; stroke-width:0px;"/><path d="M137.59,46.51h-.24v-.31h.19c.1,0,.25.01.25.14,0,.14-.07.17-.19.17M138.07,46.37c0-.29-.19-.38-.52-.38h-.47v1.27h.27v-.53h.13l.29.53h.32l-.33-.56c.17-.01.31-.1.31-.33M137.54,47.53h0c-.47,0-.85-.36-.85-.91s.38-.9.85-.9.85.36.85.9-.39.91-.85.91M137.54,45.44c-.63,0-1.18.43-1.18,1.18s.56,1.18,1.18,1.18,1.18-.44,1.18-1.18-.56-1.18-1.18-1.18" style="fill:#035b98; stroke-width:0px;"/><rect x="99.81" y="1" width="1.2" height="60" style="fill:#221e20; stroke-width:0px;"/><ellipse cx="69.86" cy="36.9" rx="28.47" ry="3.19" style="fill:url(#radial-gradient); mix-blend-mode:multiply; opacity:.5; stroke-width:0px;"/><path d="M72.42,14.57c-.18-.01-.34.13-.35.32,0,.19.13.34.32.35,5.41.28,10.06,2.02,11.44,4.09.04-.31.07-.63.1-.95-1.88-2.01-6.24-3.54-11.5-3.81Z" style="fill:url(#linear-gradient); stroke-width:0px;"/><path d="M42.71,29.3c-.69,0-1.11-.07-1.14-.07-.08-.01-.13-.09-.12-.17s.09-.13.17-.12c.03,0,2.56.43,5.39-.81,3.75-1.64,6.34-5.46,7.49-11.04.87-4.23,3.11-9.84,8.87-12.53,3.45-1.61,6.57-1.39,6.6-1.39.08,0,.14.08.14.16,0,.08-.08.14-.16.14-.03,0-3.08-.21-6.46,1.37-3.11,1.46-7.15,4.77-8.7,12.32-2.26,11.03-9.31,12.15-12.09,12.15Z" style="fill:url(#linear-gradient-2); stroke-width:0px;"/><path d="M70.1,32c-8.01,0-14.53-6.52-14.53-14.53s6.52-14.53,14.53-14.53,14.53,6.52,14.53,14.53-6.52,14.53-14.53,14.53ZM70.1,3.6c-7.64,0-13.86,6.22-13.86,13.86s6.22,13.86,13.86,13.86,13.86-6.22,13.86-13.86-6.22-13.86-13.86-13.86Z" style="fill:url(#linear-gradient-3); stroke-width:0px;"/><path d="M61.63,16.92s-.04,0-.06-.01c-.08-.03-.11-.12-.08-.19,1.87-4.61,4.76-7.61,8.6-8.92,7.78-2.65,16.91,2.62,17.01,2.67.07.04.09.13.05.2-.04.07-.13.09-.2.05-.09-.05-9.11-5.25-16.76-2.65-3.76,1.28-6.59,4.22-8.42,8.75-.02.06-.08.09-.14.09Z" style="fill:url(#linear-gradient-4); stroke-width:0px;"/><rect x="60.66" y="15.79" width="2" height="1.79" transform="translate(102.69 -32.26) rotate(114.83)" style="fill:#006397; stroke-width:0px;"/><rect x="80.45" y="18.3" width="1.04" height=".93" transform="translate(132.43 -46.51) rotate(115.2)" style="fill:#3c3c3b; stroke-width:0px;"/><rect x="59.5" y="19.77" width="1.04" height=".93" transform="translate(103.88 -25.44) rotate(115.2)" style="fill:#3c3c3b; stroke-width:0px;"/><rect x="73.03" y="5.16" width=".97" height=".87" transform="translate(46.5 -63) rotate(64.15)" style="fill:#3c3c3b; stroke-width:0px;"/><rect x="66.91" y="19.9" width="2.18" height="1.95" transform="translate(66.36 -50.24) rotate(71.62)" style="fill:#76bc21; stroke-width:0px;"/><rect x="60.92" y="7.49" width="2.43" height=".98" transform="translate(16.25 50.62) rotate(-50.22)" style="fill:#76bc21; stroke-width:0px;"/><rect x="64.74" y="28.53" width="2.43" height="1.1" transform="translate(16.2 -23.07) rotate(22.55)" style="fill:#006397; stroke-width:0px;"/><path d="M71.35,34.27c-.18,0-.36,0-.55,0-.08,0-.15-.07-.15-.15,0-.08.06-.14.16-.14.18,0,.36,0,.54,0h.06s0,0,0,0c.08,0,.15.07.15.15,0,.08-.07.15-.15.15h-.07ZM72.02,34.26c-.08,0-.15-.06-.15-.14,0-.08.06-.15.15-.15.2,0,.4-.02.6-.03.08,0,.16.06.16.14,0,.08-.06.15-.14.16-.2.01-.41.02-.61.03h0ZM70.2,34.23s0,0,0,0c-.2-.01-.41-.03-.61-.05-.08,0-.14-.08-.14-.16,0-.08.08-.14.17-.13.2.02.4.03.6.05.08,0,.15.08.14.16,0,.08-.07.14-.15.14ZM73.24,34.17c-.08,0-.14-.06-.15-.13,0-.08.05-.15.13-.16.2-.02.4-.04.6-.07.08-.01.16.04.17.13.01.08-.05.16-.13.17-.2.03-.41.05-.61.07,0,0-.01,0-.02,0ZM68.99,34.12s-.01,0-.02,0c-.2-.03-.4-.06-.61-.09-.08-.01-.14-.09-.12-.17.01-.08.09-.14.17-.12.2.03.4.06.6.09.08.01.14.09.13.17-.01.07-.08.13-.15.13ZM74.44,34.01c-.07,0-.14-.05-.15-.12-.01-.08.04-.16.12-.17.2-.03.4-.07.59-.11.08-.02.16.03.18.11.02.08-.04.16-.12.18-.2.04-.4.08-.6.11,0,0-.02,0-.03,0ZM67.8,33.92s-.02,0-.03,0c-.2-.04-.4-.08-.6-.13-.08-.02-.13-.1-.11-.18.02-.08.1-.13.18-.11.2.05.39.09.59.13.08.02.14.09.12.17-.01.07-.08.12-.15.12ZM75.63,33.77c-.07,0-.13-.05-.15-.11-.02-.08.03-.16.11-.18.2-.05.39-.1.58-.15.08-.02.16.02.19.1.02.08-.02.16-.1.18-.2.05-.39.11-.59.15-.01,0-.02,0-.04,0ZM66.62,33.64s-.03,0-.04,0c-.2-.05-.39-.11-.59-.17-.08-.02-.12-.11-.1-.19.03-.08.11-.12.19-.1.19.06.38.12.58.17.08.02.13.1.11.18-.02.07-.08.11-.15.11ZM76.8,33.44c-.06,0-.12-.04-.14-.1-.03-.08.02-.16.1-.19.19-.06.38-.12.57-.19.08-.03.17.01.19.09.03.08-.01.16-.09.19-.19.07-.38.13-.58.19-.02,0-.03,0-.05,0ZM65.46,33.29s-.03,0-.05,0c-.19-.07-.38-.14-.57-.21-.08-.03-.12-.12-.08-.19.03-.08.12-.11.2-.08.19.07.37.14.56.21.08.03.12.11.09.19-.02.06-.08.1-.14.1ZM77.94,33.04c-.06,0-.12-.04-.14-.09-.03-.08,0-.16.08-.19.19-.07.37-.15.55-.23.08-.03.17,0,.2.07s0,.16-.08.2c-.19.08-.37.16-.56.24-.02,0-.04.01-.06.01ZM64.33,32.85s-.04,0-.06-.01c-.19-.08-.37-.16-.56-.25-.08-.04-.11-.12-.07-.2.04-.07.13-.1.2-.07.18.09.36.17.55.25.08.03.11.12.08.2-.03.06-.08.09-.14.09ZM79.04,32.55c-.06,0-.11-.03-.14-.08-.04-.07,0-.16.07-.2.18-.09.36-.18.53-.27.07-.04.17-.01.21.06.04.07.01.16-.06.2-.18.1-.36.19-.54.28-.02.01-.04.02-.07.02ZM63.24,32.32s-.05,0-.07-.02c-.18-.09-.36-.19-.53-.29-.07-.04-.1-.13-.05-.2.04-.07.14-.09.21-.05.17.1.35.2.52.29.07.04.1.13.06.2-.03.05-.08.08-.13.08ZM80.11,31.97c-.05,0-.1-.03-.13-.07-.04-.07-.02-.16.05-.2.17-.1.34-.21.51-.32.07-.05.16-.03.21.04.05.07.03.16-.04.21-.17.11-.34.22-.52.32-.02.01-.05.02-.08.02ZM62.19,31.72s-.06,0-.08-.02c-.17-.11-.34-.22-.51-.33-.07-.05-.09-.14-.04-.21.05-.07.14-.08.21-.04.17.11.33.22.5.33.07.04.09.14.05.2-.03.04-.08.07-.13.07ZM81.12,31.31s-.09-.02-.12-.06c-.05-.07-.03-.16.03-.21.16-.12.32-.24.48-.36.06-.05.16-.04.21.02.05.06.04.16-.02.21-.16.13-.32.25-.49.37-.03.02-.06.03-.09.03ZM61.19,31.05s-.06,0-.09-.03c-.16-.12-.32-.24-.48-.37-.06-.05-.07-.15-.02-.21.05-.06.15-.07.21-.02.16.12.31.24.47.36.07.05.08.14.03.21-.03.04-.08.06-.12.06ZM82.06,30.57s-.08-.02-.11-.05c-.06-.06-.05-.16.01-.21.15-.13.3-.26.44-.4.06-.06.16-.06.21,0,.06.06.06.15,0,.21-.15.14-.3.28-.45.41-.03.03-.06.04-.1.04ZM60.25,30.3s-.07-.01-.1-.04c-.15-.13-.31-.25-.47-.38-.07-.05-.08-.15-.02-.21.05-.06.15-.07.21-.02.16.13.32.25.47.38.06.05.07.15.02.21-.03.03-.07.05-.12.05ZM82.93,29.74s-.07-.01-.1-.04c-.06-.06-.07-.15,0-.21.14-.14.27-.29.39-.44.05-.06.15-.07.21-.02.06.05.07.15.02.21-.13.15-.27.31-.4.45-.03.03-.07.05-.11.05ZM59.31,29.55s-.07-.01-.09-.03c-.16-.12-.32-.24-.48-.36-.07-.05-.08-.14-.03-.21.05-.07.15-.08.21-.03.16.12.32.24.48.36.07.05.08.14.03.21-.03.04-.07.06-.12.06ZM58.33,28.83s-.06,0-.09-.03c-.16-.12-.33-.23-.49-.34-.07-.05-.09-.14-.04-.21.05-.07.14-.08.21-.04.17.11.33.23.5.35.07.05.08.14.03.21-.03.04-.08.06-.12.06ZM83.7,28.82s-.06,0-.09-.03c-.07-.05-.08-.14-.03-.21.12-.16.23-.32.34-.48.05-.07.14-.09.21-.04.07.04.09.14.04.21-.11.17-.23.33-.35.49-.03.04-.08.06-.12.06ZM57.34,28.15s-.06,0-.09-.03c-.17-.11-.33-.22-.5-.33-.07-.05-.09-.14-.04-.21.05-.07.14-.09.21-.04.17.11.34.22.5.33.07.05.09.14.04.21-.03.04-.08.06-.13.06ZM84.37,27.83s-.05,0-.08-.02c-.07-.04-.1-.13-.06-.2.1-.17.19-.34.28-.51.04-.07.13-.1.2-.07.07.04.11.13.07.2-.09.18-.19.36-.29.53-.03.05-.08.07-.13.07ZM56.33,27.5s-.06,0-.08-.02c-.17-.11-.34-.21-.51-.32-.07-.04-.09-.13-.05-.2.04-.07.14-.09.21-.05.17.1.34.21.51.32.07.04.09.14.05.21-.03.04-.08.07-.13.07ZM55.3,26.87s-.05,0-.08-.02c-.17-.1-.35-.2-.52-.3-.07-.04-.1-.13-.05-.2.04-.07.14-.09.21-.05.17.1.35.2.52.31.07.04.09.13.05.2-.03.05-.08.07-.13.07ZM84.91,26.77s-.04,0-.06-.01c-.08-.03-.11-.12-.08-.19.08-.18.15-.36.22-.54.03-.08.11-.12.19-.09.08.03.12.11.09.19-.07.19-.14.38-.22.56-.02.06-.08.09-.14.09ZM54.26,26.26s-.05,0-.08-.02c-.18-.1-.35-.2-.53-.29-.07-.04-.1-.13-.06-.2.04-.07.13-.1.21-.06.18.1.35.19.53.29.07.04.1.13.06.2-.03.05-.08.07-.13.07ZM53.2,25.68s-.05,0-.07-.02c-.18-.1-.36-.19-.53-.28-.07-.04-.1-.13-.06-.2.04-.07.13-.1.21-.06.18.09.36.19.54.28.07.04.1.13.06.2-.03.05-.08.08-.13.08ZM85.32,25.65s-.03,0-.04,0c-.08-.02-.13-.11-.1-.18.06-.19.11-.37.15-.57.02-.08.1-.13.18-.11.08.02.13.1.12.18-.05.2-.1.39-.15.58-.02.06-.08.11-.15.11ZM52.12,25.12s-.05,0-.07-.02c-.18-.09-.36-.18-.54-.27-.07-.04-.1-.13-.07-.2.04-.07.13-.1.2-.07.18.09.36.18.54.27.07.04.1.13.06.2-.03.05-.08.08-.13.08ZM51.04,24.59s-.05,0-.07-.02c-.18-.09-.37-.18-.54-.26-.08-.04-.11-.12-.07-.2.04-.07.13-.1.2-.07.18.08.36.17.55.26.08.04.11.13.07.2-.03.05-.08.08-.14.08ZM85.58,24.5s-.02,0-.02,0c-.08-.01-.14-.09-.13-.17.03-.19.06-.38.08-.58,0-.08.08-.14.17-.13.08,0,.14.08.14.16-.02.2-.05.4-.08.6-.01.07-.08.12-.15.12ZM49.95,24.07s-.04,0-.06-.01c-.19-.09-.37-.17-.55-.25-.08-.03-.11-.12-.07-.2.03-.07.12-.11.2-.07.18.08.36.17.55.25.08.04.11.12.07.2-.03.05-.08.09-.14.09ZM48.84,23.57s-.04,0-.06-.01c-.19-.08-.37-.16-.55-.24-.08-.03-.11-.12-.08-.2.03-.08.12-.11.2-.08.18.08.37.16.56.24.08.03.11.12.08.2-.03.05-.08.09-.14.09ZM85.71,23.32s0,0,0,0c-.08,0-.15-.07-.14-.16,0-.07,0-.15,0-.22,0-.08.07-.14.15-.14h0c.08,0,.15.07.15.15,0,.08,0,.15,0,.22,0,.08-.07.14-.15.14ZM47.73,23.09s-.04,0-.06-.01c-.19-.08-.38-.16-.56-.23-.08-.03-.11-.12-.08-.19.03-.08.12-.11.2-.08.18.07.37.15.56.23.08.03.11.12.08.19-.02.06-.08.09-.14.09ZM46.61,22.64s-.04,0-.06-.01c-.2-.08-.39-.15-.56-.22-.08-.03-.12-.12-.09-.19s.12-.11.2-.08c.17.07.36.14.57.22.08.03.12.12.08.19-.02.06-.08.09-.14.09ZM45.47,22.2s-.04,0-.05,0c-.37-.13-.57-.2-.57-.2-.08-.03-.12-.11-.09-.19.03-.08.11-.12.19-.09,0,0,.21.07.58.21.08.03.12.11.09.19-.02.06-.08.1-.14.1Z" style="fill:url(#linear-gradient-5); stroke-width:0px;"/><rect x="84.99" y="21.91" width="1.59" height="1.42" transform="translate(113.84 -61.54) rotate(93.67)" style="fill:#006397; stroke-width:0px;"/><rect x="86.23" y="9.88" width="1.59" height="1.42" transform="translate(139.71 -59.47) rotate(120)" style="fill:#76bc21; stroke-width:0px;"/><path d="M59.5,34.09c-.08,0-.15-.06-.15-.15-.12-8.38,2.37-14.8,7.4-19.08,9.96-8.48,26.7-5.65,26.86-5.62.08.01.13.09.12.17-.01.08-.09.13-.17.12-.17-.03-16.77-2.83-26.62,5.56-4.96,4.22-7.41,10.56-7.29,18.85,0,.08-.06.15-.15.15h0Z" style="fill:url(#linear-gradient-6); stroke-width:0px;"/><rect x="71.76" y="14.14" width="1.71" height="1.53" transform="translate(92.13 -56.6) rotate(93.67)" style="fill:#006397; stroke-width:0px;"/><path d="M68.77,24.01c-.06,0-.12-.03-.15-.09-.04-.08-.01-.18.07-.23.2-.1.4-.21.59-.31.08-.04.18-.01.23.07s.01.18-.07.23c-.19.11-.39.21-.59.32-.02.01-.05.02-.08.02ZM69.95,23.37c-.06,0-.12-.03-.15-.08-.05-.08-.02-.18.06-.23.2-.11.39-.22.58-.33.08-.05.18-.02.23.06.05.08.02.18-.06.23-.19.11-.38.23-.58.34-.03.01-.05.02-.08.02ZM71.1,22.69c-.06,0-.11-.03-.14-.08-.05-.08-.02-.18.05-.23.19-.12.38-.24.56-.36.08-.05.18-.03.23.05.05.08.03.18-.05.23-.19.12-.37.24-.57.36-.03.02-.06.03-.09.03ZM72.22,21.96c-.05,0-.11-.03-.14-.07-.05-.08-.03-.18.04-.23.19-.13.37-.26.54-.38.07-.05.18-.04.23.04.05.07.04.18-.04.23-.18.13-.36.26-.55.39-.03.02-.06.03-.09.03ZM73.3,21.17c-.05,0-.1-.02-.13-.07-.06-.07-.04-.18.03-.23.18-.14.35-.27.52-.41.07-.06.18-.05.24.02.06.07.05.18-.02.24-.17.14-.35.28-.53.42-.03.02-.07.03-.1.03ZM74.34,20.32s-.09-.02-.13-.06c-.06-.07-.05-.18.02-.24.17-.15.33-.3.49-.44.07-.06.17-.06.24,0,.06.07.06.17,0,.24-.16.15-.33.3-.5.45-.03.03-.07.04-.11.04ZM75.32,19.41s-.09-.02-.12-.05c-.07-.07-.07-.17,0-.24.16-.16.31-.32.46-.48.06-.07.17-.07.24,0,.07.06.07.17,0,.24-.15.16-.31.32-.47.49-.03.03-.08.05-.12.05ZM76.23,18.43s-.08-.01-.11-.04c-.07-.06-.08-.17-.02-.24.15-.17.28-.34.42-.51.06-.07.16-.09.24-.03.07.06.09.16.03.24-.14.18-.28.35-.43.53-.03.04-.08.06-.13.06ZM77.05,17.37s-.07,0-.1-.03c-.08-.05-.09-.16-.04-.23.13-.18.25-.37.37-.55.05-.08.15-.1.23-.05.08.05.1.15.05.23-.12.19-.24.38-.37.56-.03.05-.08.07-.14.07ZM77.76,16.23s-.05,0-.08-.02c-.08-.04-.11-.15-.07-.23.11-.19.21-.39.3-.59.04-.08.14-.12.22-.08.08.04.12.14.08.22-.1.2-.2.4-.31.6-.03.06-.09.09-.15.09ZM78.34,15.03s-.04,0-.06-.01c-.09-.03-.13-.13-.09-.22.08-.2.16-.41.23-.62.03-.09.12-.14.21-.11.09.03.14.12.11.21-.07.22-.15.43-.24.64-.03.07-.09.1-.16.1ZM78.76,13.76s-.03,0-.04,0c-.09-.02-.14-.11-.12-.2.06-.21.1-.43.14-.64.02-.09.11-.15.2-.13.09.02.15.1.13.2-.04.22-.09.44-.15.66-.02.08-.09.13-.16.13ZM79,12.44s-.01,0-.02,0c-.09-.01-.16-.09-.15-.19.03-.22.04-.44.05-.66,0-.09.08-.16.18-.16.09,0,.16.08.16.18-.01.22-.03.45-.06.68,0,.09-.08.15-.17.15ZM53.75,12.35s-.05,0-.08-.02c-.08-.04-.11-.14-.07-.23l.22-.42c.04-.08.14-.11.23-.07.08.04.11.14.07.23l-.22.42c-.03.06-.09.09-.15.09ZM54.29,11.34s-.06,0-.08-.02c-.08-.04-.11-.15-.06-.23.1-.18.21-.38.33-.59.05-.08.15-.11.23-.06.08.05.11.15.06.23-.12.21-.23.4-.33.58-.03.05-.09.09-.15.09ZM79.07,11.1c-.09,0-.17-.07-.17-.16,0-.22-.02-.44-.04-.66,0-.09.06-.17.15-.18.09,0,.17.06.18.15.02.23.03.45.04.68,0,.09-.07.17-.16.17h0ZM54.96,10.18s-.06,0-.09-.02c-.08-.05-.11-.15-.06-.23.11-.19.23-.38.35-.57.05-.08.15-.1.23-.05.08.05.1.15.05.23-.12.2-.24.39-.35.57-.03.05-.09.08-.14.08ZM78.95,9.77c-.08,0-.15-.06-.17-.14-.03-.22-.08-.43-.12-.65-.02-.09.04-.18.13-.2.09-.02.18.04.2.13.05.22.09.44.13.67.01.09-.05.18-.14.19,0,0-.02,0-.03,0ZM55.67,9.04s-.06,0-.09-.03c-.08-.05-.1-.15-.05-.23.12-.18.24-.37.37-.56.05-.08.16-.1.23-.04.08.05.1.16.04.23-.13.19-.25.37-.37.55-.03.05-.09.08-.14.08ZM78.66,8.46c-.07,0-.14-.05-.16-.12-.06-.21-.13-.42-.2-.63-.03-.09.02-.18.1-.21.09-.03.18.02.21.1.08.22.15.43.21.65.03.09-.03.18-.11.21-.02,0-.03,0-.05,0ZM56.43,7.94s-.07,0-.1-.03c-.08-.05-.09-.16-.04-.23.13-.18.26-.36.4-.54.06-.07.16-.09.23-.03.07.06.09.16.03.23-.13.18-.27.36-.39.54-.03.05-.08.07-.14.07ZM78.21,7.2c-.07,0-.13-.04-.15-.1-.09-.2-.18-.41-.27-.6-.04-.08,0-.18.08-.22.08-.04.18,0,.22.08.1.2.19.41.28.62.04.09,0,.18-.09.22-.02,0-.04.01-.06.01ZM57.23,6.86s-.07-.01-.1-.04c-.07-.06-.09-.16-.03-.24.14-.18.28-.35.42-.53.06-.07.16-.08.24-.02s.08.16.02.24c-.14.17-.28.35-.42.52-.03.04-.08.06-.13.06ZM77.63,5.99c-.06,0-.12-.03-.15-.09-.11-.2-.22-.39-.33-.57-.05-.08-.02-.18.05-.23.08-.05.18-.02.23.05.12.19.23.39.34.59.04.08.02.18-.07.23-.03.01-.05.02-.08.02ZM58.09,5.83s-.08-.01-.11-.04c-.07-.06-.08-.17-.02-.24.15-.17.3-.34.45-.5.06-.07.17-.07.24,0,.07.06.07.17,0,.24-.15.16-.3.33-.44.5-.03.04-.08.06-.13.06ZM76.93,4.86c-.05,0-.11-.03-.14-.07-.13-.18-.26-.36-.39-.53-.06-.07-.04-.18.03-.23.07-.06.18-.04.23.03.13.18.27.36.4.55.05.08.03.18-.04.23-.03.02-.06.03-.1.03ZM58.99,4.84s-.08-.02-.12-.05c-.07-.06-.07-.17,0-.24.16-.16.32-.32.48-.48.07-.06.17-.06.24,0,.06.07.06.17,0,.24-.16.15-.32.31-.47.47-.03.03-.08.05-.12.05ZM59.96,3.91s-.09-.02-.12-.06c-.06-.07-.06-.17.01-.24.17-.15.34-.3.51-.44.07-.06.18-.05.24.02s.05.18-.02.24c-.17.14-.34.29-.5.44-.03.03-.07.04-.11.04ZM76.11,3.79s-.09-.02-.13-.06c-.15-.17-.3-.34-.44-.49-.06-.07-.06-.17,0-.24.07-.06.17-.06.24,0,.15.16.3.33.46.5.06.07.05.18-.02.24-.03.03-.07.04-.11.04ZM60.99,3.04s-.1-.02-.13-.06c-.06-.07-.04-.18.03-.24.18-.14.36-.27.54-.4.07-.05.18-.04.23.04s.04.18-.04.23c-.18.13-.36.26-.53.4-.03.02-.07.04-.1.04ZM75.18,2.83s-.08-.01-.11-.04c-.16-.15-.33-.3-.5-.43-.07-.06-.08-.16-.03-.24s.16-.08.24-.03c.17.14.35.29.52.44.07.06.07.17,0,.24-.03.04-.08.05-.12.05ZM62.08,2.27c-.05,0-.11-.03-.14-.08-.05-.08-.03-.18.05-.23.19-.12.38-.24.58-.36.08-.05.18-.02.23.06.05.08.02.18-.06.23-.19.11-.38.23-.56.35-.03.02-.06.03-.09.03ZM74.1,2.04s-.06,0-.08-.02c-.2-.11-.39-.22-.58-.32-.08-.04-.11-.14-.07-.23.04-.08.14-.11.23-.07.2.1.4.21.6.32.08.05.11.15.06.23-.03.05-.09.08-.15.08ZM63.24,1.59c-.06,0-.12-.03-.15-.09-.04-.08-.01-.18.07-.23.2-.1.4-.2.61-.3.08-.04.18,0,.22.08.04.08,0,.18-.08.22-.2.09-.4.19-.6.29-.02.01-.05.02-.08.02ZM72.91,1.43s-.05,0-.07-.02c-.2-.09-.41-.18-.61-.26-.09-.03-.13-.13-.09-.22.03-.09.13-.13.22-.09.21.08.41.17.62.27.08.04.12.14.08.22-.03.06-.09.1-.15.1ZM64.46,1.04c-.07,0-.13-.04-.16-.11-.03-.09,0-.18.1-.22.21-.08.43-.16.64-.23.09-.03.18.02.21.11.03.09-.02.18-.11.21-.21.07-.42.14-.62.22-.02,0-.04.01-.06.01ZM71.67.93s-.04,0-.05,0c-.21-.07-.42-.14-.63-.2-.09-.03-.14-.12-.12-.21.03-.09.12-.14.21-.12.21.06.43.13.65.2.09.03.13.12.1.21-.02.07-.09.11-.16.11ZM65.73.64c-.08,0-.14-.05-.16-.13-.02-.09.03-.18.12-.2.22-.05.44-.1.67-.14.09-.01.18.04.19.13.02.09-.04.18-.13.19-.22.04-.43.09-.64.14-.01,0-.03,0-.04,0ZM70.38.57s-.02,0-.04,0c-.22-.05-.44-.09-.65-.12-.09-.01-.15-.1-.14-.19.01-.09.1-.15.19-.14.22.03.44.07.67.12.09.02.15.11.13.2-.02.08-.09.13-.16.13ZM67.05.4c-.08,0-.16-.06-.17-.15-.01-.09.06-.18.15-.19.23-.03.45-.04.68-.05.09,0,.17.07.18.16s-.07.17-.16.18c-.22,0-.44.03-.66.05,0,0-.01,0-.02,0ZM69.06.37s0,0-.01,0c-.22-.02-.44-.03-.66-.04-.09,0-.17-.08-.16-.17,0-.09.08-.18.17-.16.22,0,.45.02.68.04.09,0,.16.09.15.18,0,.09-.08.15-.17.15Z" style="fill:url(#linear-gradient-7); stroke-width:0px;"/><rect x="53.1" y="11.55" width="1.41" height="1.27" transform="translate(87.45 -31.53) rotate(114.83)" style="fill:#006397; stroke-width:0px;"/><path d="M68.25,5.18c-1.71,2.32-3.23,6.76-.79,14.76.03.09.12.14.21.11.09-.03.14-.12.11-.21-2.4-7.87-.92-12.21.74-14.46.56-.76,1.2-1.35,1.83-1.78-.19,0-.39,0-.58,0-.53.41-1.06.93-1.53,1.57Z" style="fill:url(#linear-gradient-8); stroke-width:0px;"/><path d="M77.78,8.23c-.97-3.84-2.68-5.87-4.93-5.87-.58,0-1.3.19-2.05.59.23.01.46.03.69.05.5-.2.96-.3,1.36-.3,2.63,0,3.95,3.05,4.6,5.62,1.9,7.54.35,20.64-2.64,22.26-.08.04-.11.15-.07.23.03.06.09.09.15.09.03,0,.05,0,.08-.02,3.16-1.71,4.78-14.83,2.81-22.64Z" style="fill:url(#linear-gradient-9); stroke-width:0px;"/><path d="M36.57,58.41c.63.3,1.25.51,1.9.51,1.01,0,1.76-.57,1.76-1.4,0-2.01-3.62-1.44-3.62-3.93,0-1.4,1.16-2.03,2.2-2.03.62,0,1.2.14,1.8.4l-.22.6c-.53-.22-1.01-.36-1.58-.36-.97,0-1.51.57-1.51,1.38,0,1.9,3.62,1.46,3.62,3.93,0,1.25-1.06,2.05-2.45,2.05-.71,0-1.39-.2-2.1-.56l.2-.6Z" style="fill:#035b98; stroke-width:0px;"/><path d="M41.8,56.67c0-1.59,1.15-2.9,2.76-2.9s2.76,1.31,2.76,2.9-1.15,2.89-2.76,2.89-2.76-1.3-2.76-2.89ZM46.65,56.67c0-1.25-.82-2.28-2.09-2.28s-2.09,1.04-2.09,2.28.83,2.27,2.09,2.27,2.09-1.02,2.09-2.27Z" style="fill:#035b98; stroke-width:0px;"/><path d="M52.86,59.17c-.61.29-1.21.39-1.84.39-1.78,0-2.83-1.31-2.83-2.9s1.05-2.89,2.83-2.89c.62,0,1.24.12,1.85.38l-.2.58c-.56-.22-1.1-.33-1.65-.33-1.42,0-2.18,1.09-2.18,2.27s.76,2.28,2.17,2.28c.56,0,1.09-.16,1.64-.37l.21.6Z" style="fill:#035b98; stroke-width:0px;"/><path d="M54.52,51.62c.26,0,.47.19.47.45s-.21.46-.47.46c-.28,0-.47-.2-.47-.46s.19-.45.47-.45ZM54.2,53.91h.65v5.51h-.65v-5.51Z" style="fill:#035b98; stroke-width:0px;"/><path d="M60.79,59.23c-.59.24-1.16.33-1.76.33-1.7,0-2.75-1.3-2.75-2.89s1.05-2.9,2.56-2.9c1.72,0,2.44,1.35,2.44,2.87h-4.35c0,1.3.77,2.3,2.1,2.3.56,0,1.09-.12,1.64-.33l.12.62ZM60.6,56.08c-.16-1.17-.82-1.69-1.76-1.69-.87,0-1.65.55-1.86,1.69h3.62Z" style="fill:#035b98; stroke-width:0px;"/><path d="M62.83,54.47h-.79v-.56h.79v-1.4l.65-.29v1.69h1.37v.56h-1.37v3.34c0,.73.31,1.14,1.02,1.14.21,0,.43-.03.65-.1l.13.6c-.28.08-.56.12-.83.12-.92,0-1.61-.57-1.61-1.69v-3.41Z" style="fill:#035b98; stroke-width:0px;"/><path d="M66.67,61.38c.41,0,.71-.24.9-.82l.37-1.14h-.22l-1.94-5.51h.68l1.4,4.06c.08.23.19.6.28.91.08-.31.19-.67.27-.91l1.31-4.06h.68l-2.26,6.93c-.26.79-.82,1.16-1.47,1.16-.35,0-.69-.06-1.02-.21l.19-.59c.28.12.56.18.83.18Z" style="fill:#035b98; stroke-width:0px;"/><path d="M3.39,18.79h-1.28c-.3,0-1.5.05-1.5.05l-.08-.09c.05-1.45.08-2.89.08-4.34v-1.09c0-1.81-.02-3.64-.14-5.45l.08-.09h1.08c.51,0,1.42-.03,1.75-.05l.06.09c-.05,2.14-.08,4.29-.08,6.44,0,1.48.03,2.96.11,4.43l-.08.09Z" style="fill:#035b98; stroke-width:0px;"/><path d="M12.92,16.79c-.05.64-.08,1.31-.11,1.9l-.12.09c-2.28,0-4.57.02-6.87.03l-.08-.11c.06-1.44.08-2.87.08-4.32v-3.23c0-1.11-.02-2.2-.11-3.29l.09-.09c1.7,0,5.82-.03,6.85-.03l.08.09c-.05.64-.09,1.2-.11,1.81l-.09.09c-1.34-.03-2.67-.05-3.99-.05,0,.3-.02.72-.02,1.15,0,.5,0,1,.02,1.33,1.26,0,2.51-.02,3.76-.06l.09.11c-.05.59-.08,1.17-.11,1.76l-.09.09c-2.29-.02-3.65-.02-3.65-.02,0,.92.02,1.83.03,2.73,1.44,0,2.86-.03,4.28-.11l.08.11Z" style="fill:#035b98; stroke-width:0px;"/><path d="M21.69,16.79c-.05.64-.08,1.31-.11,1.9l-.13.09c-2.28,0-4.57.02-6.87.03l-.08-.11c.06-1.44.08-2.87.08-4.32v-3.23c0-1.11-.02-2.2-.11-3.29l.09-.09c1.7,0,5.82-.03,6.85-.03l.08.09c-.05.64-.09,1.2-.11,1.81l-.09.09c-1.34-.03-2.67-.05-3.99-.05,0,.3-.02.72-.02,1.15,0,.5,0,1,.02,1.33,1.26,0,2.51-.02,3.76-.06l.09.11c-.05.59-.08,1.17-.11,1.76l-.09.09c-2.29-.02-3.65-.02-3.65-.02,0,.92.02,1.83.03,2.73,1.44,0,2.86-.03,4.28-.11l.08.11Z" style="fill:#035b98; stroke-width:0px;"/><path d="M30.46,16.79c-.05.64-.08,1.31-.11,1.9l-.12.09c-2.28,0-4.57.02-6.87.03l-.08-.11c.06-1.44.08-2.87.08-4.32v-3.23c0-1.11-.02-2.2-.11-3.29l.09-.09c1.7,0,5.82-.03,6.85-.03l.08.09c-.05.64-.09,1.2-.11,1.81l-.09.09c-1.34-.03-2.67-.05-3.99-.05,0,.3-.02.72-.02,1.15,0,.5,0,1,.02,1.33,1.26,0,2.51-.02,3.76-.06l.09.11c-.05.59-.08,1.17-.11,1.76l-.09.09c-2.29-.02-3.65-.02-3.65-.02,0,.92.02,1.83.03,2.73,1.44,0,2.86-.03,4.28-.11l.08.11Z" style="fill:#035b98; stroke-width:0px;"/><path d="M.59,31.5c1.06.52,2.09.83,3.2.83,1.28,0,2.07-.68,2.07-1.7,0-2.54-5.5-1.94-5.5-6.13,0-2.26,1.89-3.57,4.04-3.57,1.15,0,2.15.28,3.26.76l-.63,1.74c-.91-.37-1.72-.59-2.63-.59-1.18,0-1.78.69-1.78,1.67,0,2.43,5.5,2.05,5.5,6.13,0,2.18-1.91,3.61-4.33,3.61-1.3,0-2.52-.31-3.79-.96l.59-1.78Z" style="fill:#7db828; stroke-width:0px;"/><path d="M10.63,20.57c.65,0,1.28.5,1.28,1.2s-.59,1.24-1.28,1.24c-.72,0-1.24-.54-1.24-1.24s.57-1.2,1.24-1.2ZM9.59,24.65h2.07v9.35h-2.07v-9.35Z" style="fill:#7db828; stroke-width:0px;"/><path d="M14.75,35.83c.93.43,1.83.63,2.8.63,1.74,0,2.61-1.17,2.61-2.8v-.87c-.67.76-1.59,1.2-2.76,1.2-2.7,0-4.37-2.26-4.37-4.79s1.68-4.79,4.37-4.79c1.2,0,2.17.48,2.83,1.28l.11-1.04,1.89.19v9.05c0,2.59-1.93,4.41-4.68,4.41-1.17,0-2.26-.22-3.42-.81l.63-1.65ZM20.29,29.2c0-1.8-1.17-2.96-2.65-2.96s-2.46,1.28-2.46,2.96.89,2.96,2.46,2.96c1.39,0,2.65-1.06,2.65-2.96Z" style="fill:#7db828; stroke-width:0px;"/><path d="M24.03,24.83l1.78-.19.19,1.2c.67-.96,1.68-1.44,2.96-1.44,1.87,0,3.09,1.37,3.09,3.57v6.02h-2.07v-5.74c0-1.17-.43-2.02-1.44-2.02-1.5,0-2.43,1.28-2.43,3.44v4.31h-2.07v-9.16Z" style="fill:#7db828; stroke-width:0px;"/><path d="M40.54,32.88c-.67.83-1.63,1.35-2.85,1.35-2.7,0-4.37-2.37-4.37-4.92s1.74-4.91,4.37-4.91c1.15,0,2.07.46,2.76,1.22v-.98l2.07.19v9.16h-1.8l-.19-1.11ZM40.58,29.29c0-1.83-1.17-3.05-2.65-3.05s-2.46,1.35-2.46,3.07.89,3.09,2.46,3.09c1.39,0,2.65-1.15,2.65-3.11Z" style="fill:#7db828; stroke-width:0px;"/><path d="M44.3,20.72l2.07-.44v11.33c0,.57.2.81.74.81l-.2,1.8c-1.57,0-2.61-.57-2.61-2.35v-11.14Z" style="fill:#7db828; stroke-width:0px;"/><path d="M.68,36.4h3.72c2.52,0,4.35,1.43,4.35,3.96s-1.87,3.98-4.37,3.98h-1.55v4.89H.68v-12.83ZM4.18,42.49c1.83,0,2.41-.85,2.41-2.13s-.69-2.07-2.35-2.07h-1.41v4.2h1.35Z" style="fill:#7db828; stroke-width:0px;"/><path d="M10.01,40.06l1.78-.19.22,1.33c.61-.94,1.55-1.57,3-1.57v1.83c-1.89,0-2.92,1.48-2.92,3.61v4.15h-2.07v-9.16Z" style="fill:#7db828; stroke-width:0px;"/><path d="M15.4,44.56c0-2.65,1.96-4.92,4.81-4.92s4.81,2.28,4.81,4.92-1.93,4.91-4.81,4.91-4.81-2.26-4.81-4.91ZM22.88,44.56c0-1.83-1.2-3.09-2.67-3.09s-2.67,1.26-2.67,3.09,1.18,3.07,2.67,3.07,2.67-1.26,2.67-3.07Z" style="fill:#7db828; stroke-width:0px;"/><path d="M34.12,48.8c-1.07.52-2.11.67-3.17.67-3.09,0-4.96-2.26-4.96-4.92s1.85-4.91,4.96-4.91c1.09,0,2.13.24,3.2.7l-.59,1.67c-.85-.33-1.7-.54-2.57-.54-1.81,0-2.85,1.43-2.85,3.07s1.04,3.09,2.85,3.09c.87,0,1.7-.22,2.57-.57l.56,1.74Z" style="fill:#7db828; stroke-width:0px;"/><path d="M43.02,48.8c-1.06.46-2.04.67-3.2.67-3.13,0-4.89-2.22-4.89-4.91s1.67-4.92,4.41-4.92,4.3,2.22,4.3,5.26h-6.63c.13,1.5.96,2.74,2.87,2.74,1,0,1.83-.22,2.74-.59l.41,1.76ZM41.54,43.47c-.3-1.61-1.2-2-2.2-2s-1.94.52-2.26,2h4.46Z" style="fill:#7db828; stroke-width:0px;"/><path d="M44.76,47.01c.81.37,1.56.65,2.35.65s1.28-.43,1.28-1.02c0-1.54-3.85-1.18-3.85-4.26,0-1.7,1.44-2.74,3.11-2.74.91,0,1.72.22,2.59.61l-.59,1.65c-.63-.28-1.2-.44-1.85-.44-.78,0-1.11.37-1.11.93,0,1.46,3.85,1.33,3.85,4.29,0,1.67-1.5,2.8-3.35,2.8-.98,0-1.93-.22-2.92-.74l.5-1.72Z" style="fill:#7db828; stroke-width:0px;"/><path d="M51.59,47.01c.81.37,1.56.65,2.35.65s1.28-.43,1.28-1.02c0-1.54-3.85-1.18-3.85-4.26,0-1.7,1.44-2.74,3.11-2.74.91,0,1.72.22,2.59.61l-.59,1.65c-.63-.28-1.2-.44-1.85-.44-.78,0-1.11.37-1.11.93,0,1.46,3.85,1.33,3.85,4.29,0,1.67-1.5,2.8-3.35,2.8-.98,0-1.93-.22-2.92-.74l.5-1.72Z" style="fill:#7db828; stroke-width:0px;"/><path d="M59.6,35.81c.65,0,1.28.5,1.28,1.2s-.59,1.24-1.28,1.24c-.72,0-1.24-.54-1.24-1.24s.57-1.2,1.24-1.2ZM58.57,39.88h2.07v9.35h-2.07v-9.35Z" style="fill:#7db828; stroke-width:0px;"/><path d="M62.42,40.06l1.78-.19.19,1.2c.67-.96,1.68-1.44,2.96-1.44,1.87,0,3.09,1.37,3.09,3.57v6.02h-2.07v-5.74c0-1.17-.43-2.02-1.44-2.02-1.5,0-2.43,1.28-2.43,3.44v4.31h-2.07v-9.16Z" style="fill:#7db828; stroke-width:0px;"/><path d="M73.43,51.06c.93.43,1.83.63,2.8.63,1.74,0,2.61-1.17,2.61-2.8v-.87c-.67.76-1.59,1.2-2.76,1.2-2.7,0-4.37-2.26-4.37-4.79s1.68-4.79,4.37-4.79c1.2,0,2.17.48,2.83,1.28l.11-1.04,1.89.19v9.05c0,2.59-1.93,4.41-4.68,4.41-1.17,0-2.26-.22-3.42-.81l.63-1.65ZM78.97,44.43c0-1.8-1.17-2.96-2.65-2.96s-2.46,1.28-2.46,2.96.89,2.96,2.46,2.96c1.39,0,2.65-1.06,2.65-2.96Z" style="fill:#7db828; stroke-width:0px;"/><path d="M73.45,25.57c-.53,0-1.06-.01-1.59-.04-4.85-.25-10.77-1.57-15.13-4.44,1.6,5.89,6.99,10.23,13.38,10.23,5.37,0,10.03-3.07,12.33-7.54-.46.25-.98.48-1.56.68-2.05.73-4.64,1.11-7.42,1.11Z" style="fill:none; stroke-width:0px;"/><path d="M84.23,20.85c-.03.12-.06.23-.09.35.04-.12.07-.23.09-.35Z" style="fill:none; stroke-width:0px;"/><path d="M72.39,15.25c-.19,0-.33-.17-.32-.35,0-.19.17-.33.35-.32,5.26.27,9.62,1.8,11.5,3.81.02-.31.03-.61.03-.92,0-7.64-6.22-13.86-13.86-13.86s-13.86,6.22-13.86,13.86c0,.91.09,1.8.26,2.66,4.29,3.08,10.41,4.48,15.39,4.74,3.28.17,6.39-.2,8.75-1.03.94-.33,1.71-.73,2.3-1.16.43-1.05.73-2.17.89-3.33-1.38-2.06-6.03-3.81-11.44-4.09Z" style="fill:none; stroke-width:0px;"/><path d="M84.92,20.72c.03-.52-.11-1.04-.4-1.53-.07.56-.17,1.12-.3,1.66-.02.12-.05.23-.09.35-.17.65-.39,1.28-.65,1.9.89-.7,1.38-1.51,1.43-2.38Z" style="fill:url(#linear-gradient-10); stroke-width:0px;"/><path d="M53.49,17.26c-.11-.15-.32-.18-.47-.06-.15.11-.18.32-.06.47.82,1.06,1.81,2,2.93,2.83-.07-.32-.13-.65-.17-.98-.83-.68-1.58-1.43-2.22-2.26Z" style="fill:url(#linear-gradient-11); stroke-width:0px;"/><path d="M71.89,24.86c-4.99-.26-11.11-1.66-15.39-4.74.06.33.14.65.23.97,4.37,2.87,10.28,4.19,15.13,4.44.54.03,1.07.04,1.59.04,2.77,0,5.36-.38,7.42-1.11.58-.21,1.1-.43,1.56-.68.19-.36.36-.74.51-1.12-.59.44-1.36.83-2.3,1.16-2.36.83-5.47,1.2-8.75,1.03Z" style="fill:url(#linear-gradient-12); stroke-width:0px;"/><path d="M56.5,20.12c-.27-.19-.53-.39-.78-.6.05.33.11.66.17.98.27.2.55.4.84.59-.09-.32-.16-.64-.23-.97Z" style="fill:url(#linear-gradient-13); stroke-width:0px;"/><path d="M82.94,22.66c-.16.38-.33.75-.51,1.12.4-.22.76-.45,1.07-.69.26-.61.47-1.25.65-1.9-.18.52-.59,1.01-1.2,1.47Z" style="fill:url(#linear-gradient-14); stroke-width:0px;"/><path d="M71.44,54.02h-.3v-.16h.79v.16h-.3v.96h-.19v-.96Z" style="fill:#035b98; stroke-width:0px;"/><path d="M72.12,53.86h.21l.21.72c.02.06.04.14.05.21.02-.07.04-.16.06-.21l.21-.72h.22l.16,1.12h-.19l-.09-.64c0-.05-.01-.13-.02-.2-.02.07-.04.14-.06.2l-.19.63h-.21l-.19-.63c-.02-.05-.04-.13-.06-.2,0,.07,0,.14-.02.2l-.09.64h-.19l.16-1.12Z" style="fill:#035b98; stroke-width:0px;"/></g></g></g></svg>